<svg height="358.184" viewBox="0 0 218.376 358.184" width="218.376" xmlns="http://www.w3.org/2000/svg"><path d="m110.114 122.411a5.063 5.063 0 0 0 -5.16 4.961v66.1l5.16-5.16h-61.214a5.164 5.164 0 0 0 0 10.32h61.211a5.16 5.16 0 0 0 5.16-5.16v-66.1a5.1 5.1 0 0 0 -5.157-4.961z" fill="#ff2e93"/><path d="m115.274 136.6v4.961h-10.32v-4.961zm0 14.941v5.018h-10.32v-5.018zm0 15v4.959h-10.32v-4.961zm0 14.941v4.961h-10.32v-4.963zm-8.11 17.149h-5.019v-10.32h5.019zm-15 0h-4.959v-10.32h4.961zm-14.94 0h-4.959v-10.32h4.961v10.32zm-15 0h-4.957v-10.32h4.961z" fill="#142664"/><path d="m41.513 186.288 30.394-49.538a2.6 2.6 0 0 1 3.48-1.1l4.449 2.73a2.6 2.6 0 0 1 .592 3.6l-30.395 49.535a4.967 4.967 0 0 1 -.8 1 10.234 10.234 0 0 0 -3.553-3.453 10.218 10.218 0 0 0 -4.688-1.6 4.881 4.881 0 0 1 .521-1.174z" fill="#142664"/><path d="m40.987 187.458a10.268 10.268 0 0 1 8.241 5.056 4.9 4.9 0 0 1 -.713.579l-8.089 6.171a.928.928 0 0 1 -1.477-.905l1.844-10a4.371 4.371 0 0 1 .194-.901z" fill="#ff2e93"/><path d="m104 209.523h-39.31l-28-57.04h43.233a4 4 0 0 1 3.59 2.237l24.073 49.041a4 4 0 0 1 -3.586 5.762z" fill="#ff2e93"/><path d="m68.311 209.523h-40.233a4 4 0 0 1 -3.591-2.237l-24.073-49.04a4 4 0 0 1 3.591-5.763h36.306z" fill="#142664"/><path d="m193.478 47.615a1.027 1.027 0 0 0 -.4-.331l-26.678-12.75a1.379 1.379 0 0 0 -1.812.639c-.137.275-.609 1.22-1.114 2.228a1.425 1.425 0 0 0 .65 1.923l31.113 15.048c13.635 6.539 21.959 10.517 23.062 8.214s-10.299-8.069-24.821-14.971z" fill="#00e6b3"/><path d="m181.31 9.207a4.831 4.831 0 0 0 -2.518-6.06 4.839 4.839 0 0 0 -6.306 1.908c-.291.459-.5.779-.5.779l9 4.288s.114-.338.324-.915z" fill="#00e6b3"/><path d="m197.724 32.725a15.193 15.193 0 0 0 -7.7-18.771c-7.968-3.788-18.188-8.712-26.156-12.5a15.163 15.163 0 0 0 -19.45 5.83c-4.952 8.162-10.7 17.563-10.7 17.563l57.032 27.209s3.715-10.342 6.974-19.331z" fill="#ff2e93"/><path d="m166.563 4.623a11.876 11.876 0 0 0 -7.182 5.8c-3.452 6.439-7.927 14.793-10.049 18.76a1.372 1.372 0 1 0 2.432 1.272c2.122-3.967 6.6-12.321 10.049-18.76a8.947 8.947 0 0 1 5.557-4.51 1.357 1.357 0 0 0 .927-1.675 1.541 1.541 0 0 0 -1.734-.886z" fill="#00e6b3"/><path d="m183.189 14.84a9.184 9.184 0 0 1 -.04 7.125c-2.854 6.807-6.513 15.466-8.315 19.646a1.346 1.346 0 1 0 2.468 1.074c1.8-4.181 5.462-12.839 8.316-19.647a11.994 11.994 0 0 0 .029-9.281 1.345 1.345 0 1 0 -2.458 1.083z" fill="#00e6b3"/><path d="m143.476 186.179h17.815v10.6h-17.815z" fill="#00e6b3"/><path d="m150.994 43.137a5.176 5.176 0 0 0 -5.16 5.192v133.246h10.32v-133.246a5.215 5.215 0 0 0 -5.16-5.192z" fill="#ff2e93"/><path d="m156.154 60.1v5.93h-10.32v-5.93zm0 17.859v6h-10.32v-6zm0 17.928v5.93h-10.32v-5.93zm0 17.859v5.93h-10.32v-5.93zm0 17.859v6h-10.32v-6zm0 17.928v5.93h-10.32v-5.93zm0 17.86v5.93h-10.32v-5.93z" fill="#142664"/><path d="m97.292 19.108-3.251 6.792-12.08 35.21-3.11 6.49a4.705 4.705 0 0 0 2.344 6.2l47.427 22.711a4.887 4.887 0 0 0 3.591.268l8.732-2.857 12.6-4.124a5 5 0 0 1 3.591.268l8.522 4.081a4.7 4.7 0 0 0 6.3-2.062l17.162-35.825a4.687 4.687 0 0 0 -2.344-6.2l-74.721-35.783a4.884 4.884 0 0 0 -3.592-.269l-8.551 2.8a4.451 4.451 0 0 0 -2.62 2.3z" fill="#142664"/><path d="m131.638 211.973a5.127 5.127 0 0 0 -5.16 5.094v130.719a5.16 5.16 0 0 0 10.32 0v-130.719a5.166 5.166 0 0 0 -5.16-5.094z" fill="#ff2e93"/><path d="m136.8 226.543v5.094h-10.32v-5.094zm0 15.341v5.153h-10.32v-5.153zm0 15.4v5.094h-10.32v-5.094zm0 15.341v5.093h-10.32v-5.093zm0 15.34v5.153h-10.32v-5.153zm0 15.4v5.093h-10.32v-5.093zm0 15.34v5.095h-10.32v-5.1zm0 15.4v5.095h-10.32v-5.1z" fill="#142664"/><circle cx="193.46" cy="126.81" fill="#00e6b3" r="18.984"/><path d="m139.453 338.834h-16.137l-8.443 8.442a2.33 2.33 0 0 1 -1.569.672h-2.39a2.147 2.147 0 0 0 -1.569.673l-2.391 2.391a2.934 2.934 0 0 0 -.822 2.091v3.363a1.831 1.831 0 0 0 .448 1.195 1.7 1.7 0 0 0 1.2.448h30.03a1.829 1.829 0 0 0 1.195-.448 1.7 1.7 0 0 0 .448-1.195z" fill="#142664"/><path d="m121 341.15-2.316 2.316 13 13a1.638 1.638 0 0 0 2.316-2.317l-13-13z" fill="#ff2e93"/><path d="m115.994 346.23-1.121 1.121a2.33 2.33 0 0 1 -1.569.672h-.149l8.965 8.966a1.638 1.638 0 1 0 2.316-2.317z" fill="#ff2e93"/><path d="m106.132 352.805h33.322v3.511a1.83 1.83 0 0 1 -.449 1.2 1.7 1.7 0 0 1 -1.195.449h-30.034a1.833 1.833 0 0 1 -1.2-.449 1.694 1.694 0 0 1 -.448-1.2v-3.511z" fill="#ff2e93"/><circle cx="133.85" cy="343.989" fill="#ff2e93" r="2.764"/><path d="m149.594 43.407-11.471 23.954-19.082 6.725 7.408 3.547a2.486 2.486 0 0 0 1.931.09l17.165-6.049a2.48 2.48 0 0 0 1.447-1.28l9.934-20.744a2.527 2.527 0 0 0 -1.19-3.378c-2.5-1.121-6.142-2.865-6.142-2.865z" fill="#00e6b3"/><path d="m91.744 15.705a2.776 2.776 0 0 0 -3.744 1.319l-9.726 20.312a2.739 2.739 0 0 0 -.116 2.145l5.952 16.891a2.746 2.746 0 0 0 1.436 1.6l34.759 16.644a2.121 2.121 0 0 0 1.624.095l16.8-5.92a3.742 3.742 0 0 0 2.111-1.873l9.875-20.618a2.1 2.1 0 0 0 -1-2.83z" fill="#ff2e93"/><path d="m133.778 63.914a1.91 1.91 0 0 0 1.085-1l6.948-14.509a1.913 1.913 0 0 0 -.9-2.556l-46.861-22.437a1.914 1.914 0 0 0 -2.557.9l-6.947 14.509a2.034 2.034 0 0 0 -.1 1.471l4.254 12.052a1.914 1.914 0 0 0 1 1.086l30.56 14.634a1.91 1.91 0 0 0 1.472.1c2.429-.81 9.668-3.413 12.046-4.25z" fill="#fff"/><path d="m111.687 67.437h5.887v2.396h-5.887z" fill="#142664" transform="matrix(.43189686 -.901923 .901923 .43189686 3.219 142.379)"/><path d="m105.884 64.658h5.887v2.396h-5.887z" fill="#142664" transform="matrix(.43189686 -.901923 .901923 .43189686 2.428 135.566)"/><path d="m122.069 51.286 1.481.714 1.8-3.766-1.482-.709a1.164 1.164 0 0 1 1-2.1l7.532 3.606a1.164 1.164 0 0 1 -1 2.1l-1.482-.71-1.8 3.766 1.482.71a1.164 1.164 0 0 1 -1 2.1l-7.533-3.607a1.154 1.154 0 0 1 -.547-1.552 1.114 1.114 0 0 1 1.549-.552z" fill="#142664"/><path d="m92.619 37.184 1.482.709 1.8-3.766-1.482-.71a1.164 1.164 0 0 1 1.006-2.1l7.532 3.607a1.164 1.164 0 0 1 -1 2.1l-1.482-.709-1.8 3.766 1.482.709a1.164 1.164 0 0 1 -1 2.1l-7.532-3.607a1.153 1.153 0 0 1 -.547-1.552 1.112 1.112 0 0 1 1.541-.547z" fill="#142664"/><path d="m110.827 59.16a1 1 0 0 1 -.432-.1l-8.918-4.271a1 1 0 0 1 -.47-1.334l2.85-5.952a1 1 0 0 1 1.334-.471l8.918 4.27a1 1 0 0 1 .471 1.334l-2.851 5.953a1 1 0 0 1 -.9.569zm-7.584-5.741 7.114 3.407 1.987-4.15-7.114-3.406z" fill="#142664"/><circle cx="193.46" cy="126.81" fill="#142664" r="12.484"/><path d="m124.119 194.336a1.934 1.934 0 0 0 -1.942 1.942v13.662a4 4 0 0 0 1.171 2.828l10.027 10.032a4 4 0 0 0 2.829 1.172h32.43a4 4 0 0 0 2.828-1.172l9.955-9.955a4 4 0 0 0 1.172-2.828v-11.681a4 4 0 0 0 -4-4z" fill="#142664"/><path d="m165.472 205.185h14.993a1.1 1.1 0 0 0 1.113-1.113 1.148 1.148 0 0 0 -1.113-1.113h-14.535l-7.267-7.267a1.111 1.111 0 0 0 -1.571 1.571l7.594 7.529a.935.935 0 0 0 .786.393z" fill="#00e6b3"/><path d="m172.516 211.58a5.141 5.141 0 0 0 -5.16 5.122v131.44a5.16 5.16 0 0 0 10.32 0v-131.442a5.18 5.18 0 0 0 -5.16-5.12z" fill="#ff2e93"/><path d="m177.676 226.231v5.122h-10.32v-5.122zm0 15.425v5.182h-10.32v-5.182zm0 15.485v5.121h-10.32v-5.121zm0 15.425v5.121h-10.32v-5.121zm0 15.425v5.181h-10.32v-5.181zm0 15.484v5.125h-10.32v-5.122zm0 15.425v5.122h-10.32v-5.122zm0 15.485v5.121h-10.32v-5.121z" fill="#142664"/><path d="m179.981 338.908h-16.138l-8.442 8.443a2.332 2.332 0 0 1 -1.569.672h-2.391a2.15 2.15 0 0 0 -1.569.672l-2.391 2.391a2.934 2.934 0 0 0 -.821 2.092v3.362a1.834 1.834 0 0 0 .448 1.2 1.7 1.7 0 0 0 1.195.448h30.034a1.837 1.837 0 0 0 1.2-.448 1.7 1.7 0 0 0 .448-1.2v-17.632z" fill="#142664"/><path d="m161.527 341.224-2.316 2.316 13 13a1.638 1.638 0 0 0 2.316-2.316z" fill="#ff2e93"/><path d="m156.522 346.305-1.121 1.12a2.329 2.329 0 0 1 -1.569.673h-.15l8.966 8.965a1.638 1.638 0 0 0 2.316-2.316z" fill="#ff2e93"/><path d="m146.66 352.879h33.321v3.512a1.829 1.829 0 0 1 -.448 1.195 1.7 1.7 0 0 1 -1.2.448h-30.033a1.829 1.829 0 0 1 -1.195-.448 1.7 1.7 0 0 1 -.448-1.195v-3.512z" fill="#ff2e93"/><circle cx="174.378" cy="344.063" fill="#ff2e93" r="2.764"/><path d="m193.093 144.921v-37.441h-82.176a18.686 18.686 0 0 0 .069 37.372h9.725l8.406 8.405v21.256l11.809 11.809h22.3l11.809-11.809v-21.256l8.266-8.266h9.794z" fill="#142664"/><g fill="#00e6b3"><path d="m161.626 137h18.274a1.181 1.181 0 0 0 0-2.362h-18.274a2.313 2.313 0 0 1 -2.292-2.292v-10.42a3.21 3.21 0 0 1 .9-2.222l9.377-9.378-1.667-1.667-9.377 9.377a5.572 5.572 0 0 0 -1.667 3.964v10.42a4.7 4.7 0 0 0 4.726 4.58z"/><path d="m97.232 137h4.932a4.728 4.728 0 0 0 4.724-4.723v-10.42a3.212 3.212 0 0 1 .9-2.223l9.378-9.378-1.668-1.667-9.377 9.378a5.569 5.569 0 0 0 -1.667 3.959v10.42a2.312 2.312 0 0 1 -2.293 2.292h-4.929a1.181 1.181 0 1 0 0 2.362z"/><path d="m161 159.509h16.463a1.171 1.171 0 0 0 1.181-1.181 1.218 1.218 0 0 0 -1.181-1.181h-16.463a1.181 1.181 0 0 0 0 2.362z"/><path d="m127.449 159.509h6.669a1.171 1.171 0 0 0 1.181-1.181 1.218 1.218 0 0 0 -1.181-1.181h-6.669a1.171 1.171 0 0 0 -1.18 1.181 1.217 1.217 0 0 0 1.18 1.181z"/><path d="m161 166.664h16.463a1.181 1.181 0 0 0 0-2.362h-16.463a1.181 1.181 0 0 0 0 2.362z"/><path d="m127.449 166.664h6.669a1.181 1.181 0 1 0 0-2.362h-6.669a1.171 1.171 0 0 0 -1.18 1.181 1.217 1.217 0 0 0 1.18 1.181z"/><path d="m161 173.818h16.463a1.17 1.17 0 0 0 1.181-1.18 1.217 1.217 0 0 0 -1.181-1.181h-16.463a1.181 1.181 0 1 0 0 2.361z"/><path d="m127.449 173.818h6.669a1.17 1.17 0 0 0 1.181-1.18 1.217 1.217 0 0 0 -1.181-1.181h-6.669a1.17 1.17 0 0 0 -1.18 1.181 1.216 1.216 0 0 0 1.18 1.18z"/><circle cx="193.093" cy="126.235" r="18.686"/></g><circle cx="193.858" cy="126.235" fill="#142664" r="10.767"/><path d="m194.46 124.81a5 5 0 0 0 -5.16 4.832v29.076c0 .117 0 .233.014.348l.023.273.041.487.035.613c.02.417.028.843.033 1.27 0 .858-.026 1.722-.083 2.583a32.416 32.416 0 0 1 -.739 5.061 21.8 21.8 0 0 1 -3.929 8.686 17.292 17.292 0 0 1 -3.219 3.161 20.032 20.032 0 0 1 -4.026 2.214 28.485 28.485 0 0 1 -9.791 1.743l-47.367.024a5.171 5.171 0 0 0 0 10.32l47.552-.026a38.65 38.65 0 0 0 13.427-2.475 30.3 30.3 0 0 0 6.336-3.5 27.6 27.6 0 0 0 5.227-5.117 32.063 32.063 0 0 0 5.848-12.722 42.658 42.658 0 0 0 .977-6.666c.074-1.113.111-2.226.107-3.346-.006-.561-.017-1.123-.044-1.694l-.05-.868c-.025-.315-.04-.552-.09-.99l.038.62v-29.075a5.041 5.041 0 0 0 -5.16-4.832z" fill="#ff2e93"/><path d="m199.62 138.631v4.832h-10.32v-4.832zm0 14.551v4.888h-10.32v-4.888zm-.346 15.344a37.9 37.9 0 0 1 -1.191 5.414l-9.9-2.924a27.614 27.614 0 0 0 .881-4.015zm-6.36 15.754c-.576.8-1.277 1.519-1.934 2.264a29.275 29.275 0 0 1 -2.2 2.024l-6.586-7.945c.5-.362.9-.832 1.356-1.238.4-.474.843-.9 1.2-1.412zm-14.555 9.72c-.927.23-1.857.5-2.784.68-.926.155-1.858.35-2.782.46l-1.315-10.24c.694-.081 1.358-.232 2.04-.337.673-.123 1.306-.327 1.963-.477l2.878 9.91zm-15.93 1.506h-4.829v-10.32h4.831zm-14.551 0h-4.832v-10.32h4.832v10.314zm-14.608 0h-4.831v-10.32h4.831z" fill="#142664"/><path d="m109.514 182.114a4 4 0 0 0 .583-5.623l-9.763-12.033a4 4 0 0 0 -6.206 5.041l9.763 12.033a4 4 0 0 0 5.623.582z" fill="#00e6b3"/><path d="m102.574 167.293-1.7-2.091-6.206 5.04 1.7 2.091z" fill="#142664"/><path d="m108.705 174.788-1.7-2.091-6.2 5.04 1.7 2.091z" fill="#142664"/><path d="m110.094 189.136a3.173 3.173 0 0 0 -3.195-3.195h-33.058a3.195 3.195 0 1 0 0 6.39h33.059a3.212 3.212 0 0 0 3.194-3.195z" fill="#00e6b3"/><path d="m73.964 185.941h2.151v6.39h-2.151z" fill="#142664"/><path d="m82.382 185.941h2.151v6.39h-2.151z" fill="#142664"/><path d="m110.094 198.967a3.173 3.173 0 0 0 -3.195-3.2h-33.058a3.2 3.2 0 0 0 0 6.391h33.059a3.213 3.213 0 0 0 3.194-3.191z" fill="#00e6b3"/><path d="m73.964 195.772h2.151v6.39h-2.151z" fill="#142664"/><path d="m82.382 195.772h2.151v6.39h-2.151z" fill="#142664"/><circle cx="105.7" cy="189.136" fill="#142664" r="14.87"/><path d="m97.805 179.278a3.174 3.174 0 0 0 -3.2-3.195h-20.764a3.195 3.195 0 1 0 0 6.39h20.769a3.174 3.174 0 0 0 3.195-3.195z" fill="#00e6b3"/><path d="m73.964 176.083h2.151v6.39h-2.151z" fill="#142664"/><path d="m82.382 176.083h2.151v6.39h-2.151z" fill="#142664"/><path d="m80.101 183.679h26.08v10.887h-26.08z" fill="#00e6b3" transform="matrix(0 1 -1 0 282.263 95.982)"/><path d="m92.065 176.083h2.151v26.08h-2.151z" fill="#142664"/><path d="m92.065 176.083h2.151v26.08h-2.151z" fill="#142664"/></svg>